<?xml version="1.0" encoding="UTF-8" standalone="no"?><!-- Generator: Gravit.io --><svg xmlns="http://www.w3.org/2000/svg" xmlns:xlink="http://www.w3.org/1999/xlink" style="isolation:isolate" viewBox="0 0 560 315" width="560pt" height="315pt"><defs><clipPath id="_clipPath_x7wqRR9YeZFsdk4NtF07lPRVZ5v7QJuc"><rect width="560" height="315"/></clipPath></defs><g clip-path="url(#_clipPath_x7wqRR9YeZFsdk4NtF07lPRVZ5v7QJuc)"><path d=" M 215.31 157.95 C 215.31 176.001 200.684 190.623 182.642 190.623 C 164.597 190.623 149.965 176.001 149.965 157.95 C 149.965 139.9 164.597 125.278 182.642 125.278 C 200.684 125.278 215.31 139.9 215.31 157.95 Z " fill="rgb(229,239,255)"/><path d=" M 123.599 80.867 C 123.599 90.689 115.634 98.649 105.817 98.649 C 95.99 98.649 88.031 90.689 88.031 80.867 C 88.031 71.045 95.99 63.081 105.817 63.081 C 115.634 63.081 123.599 71.045 123.599 80.867 Z " fill="rgb(229,239,255)"/><path d=" M 200.775 48.476 C 200.775 58.294 192.811 66.258 182.989 66.258 C 173.166 66.258 165.207 58.294 165.207 48.476 C 165.207 38.649 173.166 30.69 182.989 30.69 C 192.811 30.69 200.775 38.649 200.775 48.476 Z " fill="rgb(229,239,255)"/><path d=" M 277.397 80.328 C 277.397 90.155 269.433 98.11 259.615 98.11 C 249.793 98.11 241.829 90.155 241.829 80.328 C 241.829 70.511 249.793 62.542 259.615 62.542 C 269.433 62.542 277.397 70.511 277.397 80.328 Z " fill="rgb(229,239,255)"/><path d=" M 277.397 234.671 C 277.397 244.489 269.433 252.449 259.615 252.449 C 249.793 252.449 241.829 244.489 241.829 234.671 C 241.829 224.845 249.793 216.881 259.615 216.881 C 269.433 216.881 277.397 224.845 277.397 234.671 Z " fill="rgb(229,239,255)"/><path d=" M 200.449 266.524 C 200.449 276.346 192.485 284.31 182.663 284.31 C 172.845 284.31 164.881 276.346 164.881 266.524 C 164.881 256.702 172.845 248.737 182.663 248.737 C 192.485 248.737 200.449 256.702 200.449 266.524 Z " fill="rgb(229,239,255)"/><path d=" M 124.139 234.671 C 124.139 244.489 116.175 252.449 106.358 252.449 C 96.531 252.449 88.571 244.489 88.571 234.671 C 88.571 224.845 96.531 216.881 106.358 216.881 C 116.175 216.881 124.139 224.845 124.139 234.671 Z " fill="rgb(229,239,255)"/><path d=" M 91.744 158.24 C 91.744 168.057 83.78 176.017 73.962 176.017 C 64.136 176.017 56.176 168.057 56.176 158.24 C 56.176 148.413 64.136 140.449 73.962 140.449 C 83.78 140.449 91.744 148.413 91.744 158.24 Z " fill="rgb(229,239,255)"/><path d=" M 182.983 81.59 C 177.112 81.59 172.34 86.358 172.34 92.228 C 172.34 98.107 177.112 102.879 182.983 102.879 C 188.862 102.879 193.629 98.107 193.629 92.228 C 193.629 86.358 188.862 81.59 182.983 81.59 Z " fill="rgb(2,96,255)"/><path d=" M 182.983 233.4 C 188.862 233.4 193.629 228.642 193.629 222.763 C 193.629 216.883 188.862 212.116 182.983 212.116 C 177.112 212.116 172.34 216.883 172.34 222.763 C 172.34 228.642 177.112 233.4 182.983 233.4 Z " fill="rgb(2,96,255)"/><path d=" M 258.894 157.498 C 258.894 151.618 254.122 146.851 248.248 146.851 C 242.368 146.851 237.601 151.618 237.601 157.498 C 237.601 163.377 242.368 168.14 248.248 168.14 C 254.122 168.14 258.894 163.377 258.894 157.498 Z " fill="rgb(2,96,255)"/><path d=" M 107.082 157.498 C 107.082 163.377 111.84 168.14 117.72 168.14 C 123.59 168.14 128.357 163.377 128.357 157.498 C 128.357 151.618 123.59 146.851 117.72 146.851 C 111.84 146.851 107.082 151.618 107.082 157.498 Z " fill="rgb(2,96,255)"/><path d=" M 236.659 118.877 C 240.815 114.726 240.815 107.971 236.659 103.824 C 232.508 99.673 225.762 99.668 221.606 103.824 C 217.45 107.971 217.459 114.726 221.606 118.872 C 225.762 123.033 232.508 123.033 236.659 118.877 Z " fill="rgb(2,96,255)"/><path d=" M 129.311 196.118 C 125.16 200.27 125.16 207.02 129.311 211.171 C 133.462 215.332 140.203 215.332 144.368 211.171 C 148.52 207.02 148.52 200.27 144.364 196.118 C 140.203 191.958 133.462 191.958 129.311 196.118 Z " fill="rgb(2,96,255)"/><path d=" M 236.659 196.118 C 232.498 191.958 225.762 191.972 221.606 196.118 C 217.45 200.27 217.45 207.02 221.606 211.171 C 225.762 215.332 232.498 215.332 236.659 211.171 C 240.81 207.02 240.81 200.27 236.659 196.118 Z " fill="rgb(2,96,255)"/><path d=" M 129.311 118.872 C 133.462 123.033 140.203 123.033 144.364 118.872 C 148.52 114.716 148.52 107.971 144.364 103.824 C 140.203 99.664 133.462 99.673 129.311 103.824 C 125.155 107.971 125.155 114.721 129.311 118.872 Z " fill="rgb(2,96,255)"/><path d=" M 203.386 106.824 C 208.839 109.02 215.047 106.383 217.238 100.935 C 219.43 95.477 216.784 89.274 211.336 87.077 C 205.883 84.886 199.679 87.522 197.488 92.989 C 195.287 98.433 197.933 104.627 203.386 106.824 Z " fill="rgb(2,96,255)"/><path d=" M 162.582 208.167 C 157.133 205.976 150.934 208.612 148.738 214.056 C 146.537 219.514 149.188 225.713 154.636 227.913 C 160.094 230.105 166.293 227.468 168.489 222.015 C 170.676 216.562 168.035 210.359 162.582 208.167 Z " fill="rgb(2,96,255)"/><path d=" M 239.552 191.748 C 245.001 193.935 251.204 191.294 253.396 185.85 C 255.597 180.392 252.96 174.203 247.498 171.993 C 242.054 169.797 235.855 172.442 233.659 177.895 C 231.463 183.348 234.094 189.552 239.552 191.748 Z " fill="rgb(2,96,255)"/><path d=" M 132.304 137.097 C 134.514 131.648 131.873 125.445 126.415 123.244 C 120.967 121.062 114.758 123.693 112.567 129.147 C 110.371 134.604 113.012 140.808 118.474 142.999 C 123.918 145.195 130.122 142.555 132.304 137.097 Z " fill="rgb(2,96,255)"/><path d=" M 247.203 141.725 C 252.61 139.404 255.125 133.159 252.818 127.752 C 250.52 122.341 244.265 119.82 238.863 122.132 C 233.452 124.435 230.936 130.685 233.239 136.101 C 235.541 141.494 241.796 144.019 247.203 141.725 Z " fill="rgb(2,96,255)"/><path d=" M 127.112 192.861 C 132.519 190.563 135.03 184.303 132.732 178.897 C 130.429 173.495 124.175 170.97 118.772 173.272 C 113.366 175.584 110.841 181.844 113.143 187.246 C 115.446 192.648 121.71 195.164 127.112 192.861 Z " fill="rgb(2,96,255)"/><path d=" M 204.388 207.746 C 198.981 210.049 196.456 216.299 198.763 221.724 C 201.066 227.122 207.325 229.638 212.727 227.34 C 218.134 225.028 220.65 218.773 218.347 213.371 C 216.045 207.969 209.795 205.453 204.388 207.746 Z " fill="rgb(2,96,255)"/><path d=" M 161.582 107.24 C 166.984 104.946 169.509 98.692 167.202 93.276 C 164.904 87.873 158.645 85.353 153.242 87.651 C 147.831 89.954 145.32 96.213 147.618 101.629 C 149.921 107.031 156.175 109.538 161.582 107.24 Z " fill="rgb(2,96,255)"/><path d=" M 389.378 148.585 C 393.858 127.689 412.418 112.006 434.657 112.006 C 456.891 112.006 475.442 127.689 479.922 148.585 L 389.378 148.585 Z  M 434.657 89.166 C 410.913 89.166 389.98 101.137 377.522 119.355 C 365.059 101.137 344.132 89.166 320.387 89.166 C 320.378 89.166 320.373 89.17 320.369 89.17 C 320.364 89.17 320.355 89.166 320.355 89.166 C 318.265 89.166 316.217 89.286 314.197 89.462 C 314.003 89.476 313.808 89.485 313.604 89.508 C 311.603 89.708 309.62 89.995 307.669 90.352 C 307.507 90.384 307.336 90.412 307.174 90.454 C 305.149 90.833 303.166 91.325 301.211 91.885 C 289.563 95.253 279.218 101.61 270.962 110.061 C 275.84 116.788 279.607 124.358 281.956 132.554 C 284.333 129.024 287.15 125.822 290.379 123.075 L 290.393 123.084 C 294.405 119.665 299.024 116.904 304.056 115 C 304.107 114.981 304.148 114.962 304.213 114.935 C 306.669 114.022 309.231 113.299 311.872 112.808 C 312.02 112.78 312.168 112.762 312.316 112.734 C 313.428 112.549 314.531 112.382 315.666 112.284 C 315.935 112.243 316.213 112.22 316.486 112.197 C 317.774 112.09 319.062 112.006 320.369 112.006 C 342.269 112.034 360.574 127.259 365.388 147.7 L 365.388 148.585 L 364.665 171.541 C 358.976 190.671 341.338 204.645 320.369 204.663 C 318.932 204.663 317.501 204.575 316.088 204.455 C 315.814 204.418 315.536 204.394 315.268 204.371 C 312.423 204.061 309.652 203.496 306.979 202.676 C 306.766 202.611 306.557 202.55 306.34 202.486 C 305.019 202.06 303.713 201.592 302.439 201.054 C 302.346 201.008 302.239 200.966 302.124 200.915 C 300.97 200.419 299.849 199.859 298.741 199.275 C 298.51 199.164 298.274 199.043 298.056 198.909 C 296.911 198.288 295.799 197.607 294.72 196.893 C 294.484 196.741 294.257 196.555 294.016 196.402 C 293.145 195.791 292.292 195.156 291.468 194.498 C 291.203 194.271 290.93 194.072 290.666 193.854 C 289.739 193.071 288.841 192.256 287.97 191.394 C 287.668 191.107 287.395 190.82 287.103 190.518 C 286.455 189.828 285.815 189.129 285.199 188.42 C 284.949 188.123 284.694 187.845 284.458 187.553 C 283.698 186.627 282.984 185.663 282.308 184.686 C 282.062 184.329 281.831 183.958 281.594 183.606 C 280.811 182.411 280.177 181.113 279.51 179.844 C 276.313 187.739 271.758 194.901 266.157 201.124 C 267.26 202.532 268.395 203.903 269.604 205.214 C 269.604 205.214 269.595 205.228 269.59 205.242 C 269.84 205.502 270.104 205.761 270.35 206.007 C 271.096 206.79 271.847 207.545 272.639 208.295 C 273.482 209.106 274.362 209.917 275.266 210.695 C 275.887 211.237 276.517 211.793 277.179 212.308 C 278.319 213.221 279.51 214.101 280.705 214.949 C 281.312 215.38 281.928 215.801 282.549 216.213 C 283.869 217.08 285.227 217.895 286.612 218.669 C 287.15 218.965 287.673 219.271 288.229 219.549 C 289.749 220.351 291.291 221.101 292.881 221.801 C 293.307 221.982 293.742 222.162 294.178 222.343 C 295.901 223.052 297.643 223.686 299.432 224.266 C 299.751 224.363 300.076 224.446 300.391 224.548 C 302.304 225.132 304.259 225.646 306.238 226.049 C 306.442 226.091 306.641 226.137 306.849 226.174 C 308.948 226.591 311.07 226.916 313.229 227.152 C 313.331 227.157 313.433 227.157 313.549 227.175 C 315.791 227.388 318.047 227.523 320.355 227.523 L 320.369 227.523 L 320.387 227.523 C 337.59 227.523 353.286 221.208 365.388 210.825 L 365.388 227.184 L 388.345 227.184 L 388.345 209.625 C 400.609 220.712 416.82 227.523 434.657 227.523 C 462.571 227.523 486.566 210.932 497.491 187.122 L 470.901 187.122 C 462.414 197.797 449.339 204.663 434.657 204.663 C 413.66 204.663 395.948 190.69 390.258 171.541 L 479.046 171.541 L 502.527 171.541 L 502.67 171.541 L 502.67 170.615 C 503.398 166.616 503.824 162.525 503.824 158.337 C 503.824 120.142 472.857 89.166 434.657 89.166 Z " fill="rgb(2,96,255)"/></g></svg>